<?xml version="1.0" encoding="UTF-8"?><svg xmlns="http://www.w3.org/2000/svg" xmlns:xlink="http://www.w3.org/1999/xlink" width="375pt" zoomAndPan="magnify" viewBox="0 0 375 374.999991" height="374.999991pt" preserveAspectRatio="xMidYMid meet" version="1.2"><defs><g/></defs><g xml:id="surface1" id="surface1"><g style="fill:rgb(57.649231%,62.748718%,82.348633%);fill-opacity:1;"><g transform="translate(33.859087, 197.687493)"><path style="stroke:none;" d="M 14.984375 -4.125 L 6.03125 -4.125 L 4.328125 0 L -0.25 0 L 8.34375 -19.28125 L 12.75 -19.28125 L 21.375 0 L 16.6875 0 Z M 13.578125 -7.515625 L 10.515625 -14.90625 L 7.46875 -7.515625 Z M 13.578125 -7.515625 "/></g></g><g style="fill:rgb(57.649231%,62.748718%,82.348633%);fill-opacity:1;"><g transform="translate(63.824041, 197.687493)"><path style="stroke:none;" d="M 17.90625 -3.640625 L 17.90625 0 L 1.046875 0 L 1.046875 -2.890625 L 11.625 -15.640625 L 1.265625 -15.640625 L 1.265625 -19.28125 L 17.5 -19.28125 L 17.5 -16.390625 L 6.9375 -3.640625 Z M 17.90625 -3.640625 "/></g></g><g style="fill:rgb(57.649231%,62.748718%,82.348633%);fill-opacity:1;"><g transform="translate(91.172784, 197.687493)"><path style="stroke:none;" d="M 2.28125 -19.28125 L 11.046875 -19.28125 C 13.140625 -19.28125 14.988281 -18.878906 16.59375 -18.078125 C 18.195312 -17.285156 19.441406 -16.160156 20.328125 -14.703125 C 21.222656 -13.253906 21.671875 -11.566406 21.671875 -9.640625 C 21.671875 -7.710938 21.222656 -6.019531 20.328125 -4.5625 C 19.441406 -3.113281 18.195312 -1.988281 16.59375 -1.1875 C 14.988281 -0.394531 13.140625 0 11.046875 0 L 2.28125 0 Z M 10.828125 -3.65625 C 12.753906 -3.65625 14.289062 -4.191406 15.4375 -5.265625 C 16.582031 -6.347656 17.15625 -7.804688 17.15625 -9.640625 C 17.15625 -11.472656 16.582031 -12.925781 15.4375 -14 C 14.289062 -15.082031 12.753906 -15.625 10.828125 -15.625 L 6.75 -15.625 L 6.75 -3.65625 Z M 10.828125 -3.65625 "/></g></g><g style="fill:rgb(57.649231%,62.748718%,82.348633%);fill-opacity:1;"><g transform="translate(122.790089, 197.687493)"><path style="stroke:none;" d="M 17.21875 -3.578125 L 17.21875 0 L 2.28125 0 L 2.28125 -19.28125 L 16.859375 -19.28125 L 16.859375 -15.703125 L 6.71875 -15.703125 L 6.71875 -11.515625 L 15.671875 -11.515625 L 15.671875 -8.046875 L 6.71875 -8.046875 L 6.71875 -3.578125 Z M 17.21875 -3.578125 "/></g></g><g style="fill:rgb(57.649231%,62.748718%,82.348633%);fill-opacity:1;"><g transform="translate(150.138834, 197.687493)"><path style="stroke:none;" d="M 20.828125 -19.28125 L 12.484375 0 L 8.078125 0 L -0.25 -19.28125 L 4.578125 -19.28125 L 10.4375 -5.515625 L 16.390625 -19.28125 Z M 20.828125 -19.28125 "/></g></g><g style="fill:rgb(57.649231%,62.748718%,82.348633%);fill-opacity:1;"><g transform="translate(179.55301, 197.687493)"><path style="stroke:none;" d="M 17.21875 -3.578125 L 17.21875 0 L 2.28125 0 L 2.28125 -19.28125 L 16.859375 -19.28125 L 16.859375 -15.703125 L 6.71875 -15.703125 L 6.71875 -11.515625 L 15.671875 -11.515625 L 15.671875 -8.046875 L 6.71875 -8.046875 L 6.71875 -3.578125 Z M 17.21875 -3.578125 "/></g></g><g style="fill:rgb(57.649231%,62.748718%,82.348633%);fill-opacity:1;"><g transform="translate(206.901755, 197.687493)"><path style="stroke:none;" d="M 2.28125 -19.28125 L 6.75 -19.28125 L 6.75 -3.640625 L 16.421875 -3.640625 L 16.421875 0 L 2.28125 0 Z M 2.28125 -19.28125 "/></g></g><g style="fill:rgb(57.649231%,62.748718%,82.348633%);fill-opacity:1;"><g transform="translate(232.40537, 197.687493)"><path style="stroke:none;" d="M 11.625 0.328125 C 9.625 0.328125 7.816406 -0.101562 6.203125 -0.96875 C 4.597656 -1.832031 3.34375 -3.019531 2.4375 -4.53125 C 1.53125 -6.039062 1.078125 -7.742188 1.078125 -9.640625 C 1.078125 -11.535156 1.53125 -13.238281 2.4375 -14.75 C 3.34375 -16.269531 4.597656 -17.457031 6.203125 -18.3125 C 7.816406 -19.175781 9.625 -19.609375 11.625 -19.609375 C 13.625 -19.609375 15.421875 -19.175781 17.015625 -18.3125 C 18.617188 -17.457031 19.878906 -16.269531 20.796875 -14.75 C 21.710938 -13.238281 22.171875 -11.535156 22.171875 -9.640625 C 22.171875 -7.742188 21.710938 -6.039062 20.796875 -4.53125 C 19.878906 -3.019531 18.617188 -1.832031 17.015625 -0.96875 C 15.421875 -0.101562 13.625 0.328125 11.625 0.328125 Z M 11.625 -3.46875 C 12.757812 -3.46875 13.785156 -3.726562 14.703125 -4.25 C 15.628906 -4.78125 16.351562 -5.507812 16.875 -6.4375 C 17.394531 -7.375 17.65625 -8.441406 17.65625 -9.640625 C 17.65625 -10.835938 17.394531 -11.898438 16.875 -12.828125 C 16.351562 -13.765625 15.628906 -14.492188 14.703125 -15.015625 C 13.785156 -15.546875 12.757812 -15.8125 11.625 -15.8125 C 10.488281 -15.8125 9.457031 -15.546875 8.53125 -15.015625 C 7.613281 -14.492188 6.894531 -13.765625 6.375 -12.828125 C 5.851562 -11.898438 5.59375 -10.835938 5.59375 -9.640625 C 5.59375 -8.441406 5.851562 -7.375 6.375 -6.4375 C 6.894531 -5.507812 7.613281 -4.78125 8.53125 -4.25 C 9.457031 -3.726562 10.488281 -3.46875 11.625 -3.46875 Z M 11.625 -3.46875 "/></g></g><g style="fill:rgb(57.649231%,62.748718%,82.348633%);fill-opacity:1;"><g transform="translate(264.518382, 197.687493)"><path style="stroke:none;" d="M 10.640625 -19.28125 C 12.335938 -19.28125 13.816406 -18.992188 15.078125 -18.421875 C 16.335938 -17.859375 17.304688 -17.050781 17.984375 -16 C 18.660156 -14.957031 19 -13.71875 19 -12.28125 C 19 -10.875 18.660156 -9.640625 17.984375 -8.578125 C 17.304688 -7.523438 16.335938 -6.71875 15.078125 -6.15625 C 13.816406 -5.59375 12.335938 -5.3125 10.640625 -5.3125 L 6.75 -5.3125 L 6.75 0 L 2.28125 0 L 2.28125 -19.28125 Z M 10.390625 -8.953125 C 11.722656 -8.953125 12.738281 -9.238281 13.4375 -9.8125 C 14.132812 -10.394531 14.484375 -11.21875 14.484375 -12.28125 C 14.484375 -13.363281 14.132812 -14.191406 13.4375 -14.765625 C 12.738281 -15.347656 11.722656 -15.640625 10.390625 -15.640625 L 6.75 -15.640625 L 6.75 -8.953125 Z M 10.390625 -8.953125 "/></g></g><g style="fill:rgb(57.649231%,62.748718%,82.348633%);fill-opacity:1;"><g transform="translate(293.547005, 197.687493)"><path style="stroke:none;" d="M 17.21875 -3.578125 L 17.21875 0 L 2.28125 0 L 2.28125 -19.28125 L 16.859375 -19.28125 L 16.859375 -15.703125 L 6.71875 -15.703125 L 6.71875 -11.515625 L 15.671875 -11.515625 L 15.671875 -8.046875 L 6.71875 -8.046875 L 6.71875 -3.578125 Z M 17.21875 -3.578125 "/></g></g><g style="fill:rgb(57.649231%,62.748718%,82.348633%);fill-opacity:1;"><g transform="translate(320.89575, 197.687493)"><path style="stroke:none;" d="M 14.578125 0 L 10.859375 -5.375 L 6.75 -5.375 L 6.75 0 L 2.28125 0 L 2.28125 -19.28125 L 10.640625 -19.28125 C 12.335938 -19.28125 13.816406 -18.992188 15.078125 -18.421875 C 16.335938 -17.859375 17.304688 -17.050781 17.984375 -16 C 18.660156 -14.957031 19 -13.71875 19 -12.28125 C 19 -10.851562 18.65625 -9.617188 17.96875 -8.578125 C 17.28125 -7.546875 16.304688 -6.753906 15.046875 -6.203125 L 19.359375 0 Z M 14.484375 -12.28125 C 14.484375 -13.363281 14.132812 -14.191406 13.4375 -14.765625 C 12.738281 -15.347656 11.722656 -15.640625 10.390625 -15.640625 L 6.75 -15.640625 L 6.75 -8.921875 L 10.390625 -8.921875 C 11.722656 -8.921875 12.738281 -9.210938 13.4375 -9.796875 C 14.132812 -10.390625 14.484375 -11.21875 14.484375 -12.28125 Z M 14.484375 -12.28125 "/></g></g><g style="fill:rgb(1.959229%,57.649231%,98.429871%);fill-opacity:1;"><g transform="translate(105.253606, 215.962179)"><path style="stroke:none;" d="M 7.3125 -2.015625 L 2.953125 -2.015625 L 2.109375 0 L -0.125 0 L 4.078125 -9.421875 L 6.234375 -9.421875 L 10.4375 0 L 8.15625 0 Z M 6.625 -3.671875 L 5.140625 -7.28125 L 3.640625 -3.671875 Z M 6.625 -3.671875 "/></g></g><g style="fill:rgb(1.959229%,57.649231%,98.429871%);fill-opacity:1;"><g transform="translate(120.847118, 215.962179)"><path style="stroke:none;" d="M 1.109375 -9.421875 L 5.390625 -9.421875 C 6.410156 -9.421875 7.3125 -9.222656 8.09375 -8.828125 C 8.882812 -8.441406 9.5 -7.894531 9.9375 -7.1875 C 10.375 -6.476562 10.59375 -5.648438 10.59375 -4.703125 C 10.59375 -3.765625 10.375 -2.941406 9.9375 -2.234375 C 9.5 -1.523438 8.882812 -0.972656 8.09375 -0.578125 C 7.3125 -0.191406 6.410156 0 5.390625 0 L 1.109375 0 Z M 5.28125 -1.796875 C 6.226562 -1.796875 6.976562 -2.054688 7.53125 -2.578125 C 8.09375 -3.097656 8.375 -3.804688 8.375 -4.703125 C 8.375 -5.597656 8.09375 -6.304688 7.53125 -6.828125 C 6.976562 -7.359375 6.226562 -7.625 5.28125 -7.625 L 3.296875 -7.625 L 3.296875 -1.796875 Z M 5.28125 -1.796875 "/></g></g><g style="fill:rgb(1.959229%,57.649231%,98.429871%);fill-opacity:1;"><g transform="translate(137.247816, 215.962179)"><path style="stroke:none;" d="M 7.109375 0 L 5.296875 -2.625 L 3.296875 -2.625 L 3.296875 0 L 1.109375 0 L 1.109375 -9.421875 L 5.1875 -9.421875 C 6.019531 -9.421875 6.742188 -9.28125 7.359375 -9 C 7.972656 -8.71875 8.445312 -8.320312 8.78125 -7.8125 C 9.113281 -7.300781 9.28125 -6.695312 9.28125 -6 C 9.28125 -5.300781 9.113281 -4.695312 8.78125 -4.1875 C 8.445312 -3.6875 7.96875 -3.300781 7.34375 -3.03125 L 9.453125 0 Z M 7.078125 -6 C 7.078125 -6.53125 6.90625 -6.9375 6.5625 -7.21875 C 6.21875 -7.5 5.722656 -7.640625 5.078125 -7.640625 L 3.296875 -7.640625 L 3.296875 -4.359375 L 5.078125 -4.359375 C 5.722656 -4.359375 6.21875 -4.5 6.5625 -4.78125 C 6.90625 -5.070312 7.078125 -5.476562 7.078125 -6 Z M 7.078125 -6 "/></g></g><g style="fill:rgb(1.959229%,57.649231%,98.429871%);fill-opacity:1;"><g transform="translate(152.424284, 215.962179)"><path style="stroke:none;" d="M 1.109375 -9.421875 L 3.296875 -9.421875 L 3.296875 0 L 1.109375 0 Z M 1.109375 -9.421875 "/></g></g><g style="fill:rgb(1.959229%,57.649231%,98.429871%);fill-opacity:1;"><g transform="translate(162.125348, 215.962179)"><path style="stroke:none;" d="M 7.3125 -2.015625 L 2.953125 -2.015625 L 2.109375 0 L -0.125 0 L 4.078125 -9.421875 L 6.234375 -9.421875 L 10.4375 0 L 8.15625 0 Z M 6.625 -3.671875 L 5.140625 -7.28125 L 3.640625 -3.671875 Z M 6.625 -3.671875 "/></g></g><g style="fill:rgb(1.959229%,57.649231%,98.429871%);fill-opacity:1;"><g transform="translate(177.71886, 215.962179)"><path style="stroke:none;" d="M 9.75 -9.421875 L 9.75 0 L 7.96875 0 L 3.265625 -5.71875 L 3.265625 0 L 1.109375 0 L 1.109375 -9.421875 L 2.921875 -9.421875 L 7.59375 -3.703125 L 7.59375 -9.421875 Z M 9.75 -9.421875 "/></g></g><g style="fill:rgb(1.959229%,57.649231%,98.429871%);fill-opacity:1;"><g transform="translate(193.877402, 215.962179)"><path style="stroke:none;" d=""/></g></g><g style="fill:rgb(1.959229%,57.649231%,98.429871%);fill-opacity:1;"><g transform="translate(202.973086, 215.962179)"><path style="stroke:none;" d="M 8.75 -1.78125 L 8.75 0 L 0.515625 0 L 0.515625 -1.40625 L 5.671875 -7.640625 L 0.625 -7.640625 L 0.625 -9.421875 L 8.546875 -9.421875 L 8.546875 -8 L 3.390625 -1.78125 Z M 8.75 -1.78125 "/></g></g><g style="fill:rgb(1.959229%,57.649231%,98.429871%);fill-opacity:1;"><g transform="translate(217.288557, 215.962179)"><path style="stroke:none;" d="M 1.109375 -9.421875 L 3.296875 -9.421875 L 3.296875 0 L 1.109375 0 Z M 1.109375 -9.421875 "/></g></g><g style="fill:rgb(1.959229%,57.649231%,98.429871%);fill-opacity:1;"><g transform="translate(226.989621, 215.962179)"><path style="stroke:none;" d="M 9.75 -9.421875 L 9.75 0 L 7.96875 0 L 3.265625 -5.71875 L 3.265625 0 L 1.109375 0 L 1.109375 -9.421875 L 2.921875 -9.421875 L 7.59375 -3.703125 L 7.59375 -9.421875 Z M 9.75 -9.421875 "/></g></g><g style="fill:rgb(1.959229%,57.649231%,98.429871%);fill-opacity:1;"><g transform="translate(243.148163, 215.962179)"><path style="stroke:none;" d="M 4.546875 -3.703125 L 3.28125 -2.375 L 3.28125 0 L 1.109375 0 L 1.109375 -9.421875 L 3.28125 -9.421875 L 3.28125 -5.015625 L 7.453125 -9.421875 L 9.875 -9.421875 L 5.96875 -5.21875 L 10.109375 0 L 7.5625 0 Z M 4.546875 -3.703125 "/></g></g><g style="fill:rgb(1.959229%,57.649231%,98.429871%);fill-opacity:1;"><g transform="translate(258.391899, 215.962179)"><path style="stroke:none;" d="M 5.671875 0.15625 C 4.691406 0.15625 3.8125 -0.0507812 3.03125 -0.46875 C 2.25 -0.894531 1.632812 -1.476562 1.1875 -2.21875 C 0.75 -2.957031 0.53125 -3.785156 0.53125 -4.703125 C 0.53125 -5.628906 0.75 -6.460938 1.1875 -7.203125 C 1.632812 -7.941406 2.25 -8.519531 3.03125 -8.9375 C 3.8125 -9.363281 4.691406 -9.578125 5.671875 -9.578125 C 6.648438 -9.578125 7.53125 -9.363281 8.3125 -8.9375 C 9.09375 -8.519531 9.707031 -7.941406 10.15625 -7.203125 C 10.601562 -6.460938 10.828125 -5.628906 10.828125 -4.703125 C 10.828125 -3.785156 10.601562 -2.957031 10.15625 -2.21875 C 9.707031 -1.476562 9.09375 -0.894531 8.3125 -0.46875 C 7.53125 -0.0507812 6.648438 0.15625 5.671875 0.15625 Z M 5.671875 -1.6875 C 6.234375 -1.6875 6.738281 -1.816406 7.1875 -2.078125 C 7.632812 -2.335938 7.984375 -2.691406 8.234375 -3.140625 C 8.492188 -3.597656 8.625 -4.117188 8.625 -4.703125 C 8.625 -5.285156 8.492188 -5.804688 8.234375 -6.265625 C 7.984375 -6.722656 7.632812 -7.078125 7.1875 -7.328125 C 6.738281 -7.585938 6.234375 -7.71875 5.671875 -7.71875 C 5.117188 -7.71875 4.617188 -7.585938 4.171875 -7.328125 C 3.722656 -7.078125 3.367188 -6.722656 3.109375 -6.265625 C 2.859375 -5.804688 2.734375 -5.285156 2.734375 -4.703125 C 2.734375 -4.117188 2.859375 -3.597656 3.109375 -3.140625 C 3.367188 -2.691406 3.722656 -2.335938 4.171875 -2.078125 C 4.617188 -1.816406 5.117188 -1.6875 5.671875 -1.6875 Z M 5.671875 -1.6875 "/></g></g></g></svg>