<svg id="Capa_1" enable-background="new 0 0 607.775 607.775" height="512" viewBox="0 0 607.775 607.775" width="512" xmlns="http://www.w3.org/2000/svg"><g><g id="Page-1_5_"><g id="_x30_06---Draw-Blueprint"><path id="Shape_17_" d="m607.772 60.352c.037-8.254-3.248-16.176-9.117-21.981l-29.253-29.254c-5.778-5.841-13.654-9.124-21.87-9.117h-.101c-8.166.005-15.987 3.29-21.708 9.117l-132.696 132.696h-261.341v-111.424c0-16.784-13.606-30.389-30.389-30.389h-20.259c-44.734.05-80.986 36.302-81.036 81.036v448.241c2.535 44.393 39.511 78.955 83.974 78.493h493.408c16.783 0 30.388-13.605 30.388-30.388v-405.18c0-16.783-13.605-30.389-30.388-30.389h-38.492l59.764-59.764c5.815-5.724 9.098-13.537 9.116-21.697zm-245.336 192.886c-2.144.292-4.299-.462-5.794-2.026-1.508-1.498-2.253-3.6-2.026-5.713l3.839-34.44c.161-.72.364-1.431.608-2.127l39.9 39.9c-.658.142-1.256.466-1.945.547zm53.068-16.542-44.327-44.337 110.412-110.411 44.306 44.296zm80.368-169.082 15.022-15.012 44.286 44.296-15.012 15.022zm-475.611 13.422c.034-33.552 27.225-60.744 60.777-60.777h20.259c5.594 0 10.13 4.535 10.13 10.129v405.18c0 5.594-4.535 10.129-10.13 10.129h-20.259c-23.271-.007-45.417 10.01-60.777 27.491zm557.123 81.036c5.594 0 10.13 4.535 10.13 10.13v405.18c0 5.594-4.535 10.13-10.13 10.13h-493.408c-33.44.562-61.454-25.181-63.715-58.549v-2.229c.034-33.552 27.225-60.743 60.777-60.777h20.259c16.783 0 30.388-13.605 30.388-30.388v-273.497h241.082l-23.004 23.004c-6.422 6.328-10.462 14.679-11.436 23.642l-3.839 34.511c-.316 3.366.004 6.76.942 10.008h-173.356c-5.594 0-10.13 4.535-10.13 10.13 0 5.594 4.535 10.129 10.13 10.129h30.389v273.497c0 5.594 4.535 10.13 10.13 10.13s10.13-4.535 10.13-10.13v-141.813h111.424v81.036h-70.907c-5.594 0-10.129 4.535-10.129 10.129s4.535 10.13 10.129 10.13h202.59c11.189 0 20.259-9.07 20.259-20.259v-151.942c0-5.594-4.535-10.13-10.129-10.13s-10.13 4.535-10.13 10.13v50.647h-243.108v-111.424h148.985c.988.002 1.976-.052 2.958-.162l34.612-3.94c8.785-.997 16.985-4.901 23.298-11.092l96.109-96.23h58.7zm-121.554 243.108v81.036h-111.425v-81.036zm128.543-337.495-14.87 14.88-44.286-44.286 14.88-14.88c1.947-1.998 4.615-3.13 7.405-3.14 2.84.007 5.558 1.153 7.546 3.181l29.295 29.234c2.037 2.006 3.18 4.748 3.171 7.607-.009 2.79-1.141 5.459-3.141 7.404z"/></g></g></g></svg>