<?xml version="1.0" standalone="no"?>
<!DOCTYPE svg PUBLIC "-//W3C//DTD SVG 20010904//EN"
 "http://www.w3.org/TR/2001/REC-SVG-20010904/DTD/svg10.dtd">
<svg version="1.0" xmlns="http://www.w3.org/2000/svg"
 width="700.000000pt" height="700.000000pt" viewBox="0 0 700.000000 700.000000"
 preserveAspectRatio="xMidYMid meet">
<metadata>
Created by potrace 1.14, written by Peter Selinger 2001-2017
</metadata>
<g transform="translate(0.000000,700.000000) scale(0.100000,-0.100000)"
fill="#000000" stroke="none">
<path d="M3002 4527 l-492 -862 229 -3 229 -2 6 -48 c13 -87 18 -91 33 -28 23
101 69 184 145 259 65 64 68 69 68 115 0 158 44 343 119 497 49 101 144 245
161 245 16 0 109 -139 155 -230 73 -147 109 -280 121 -459 l7 -104 67 -66 c75
-74 123 -162 144 -264 14 -66 17 -62 31 35 l7 48 229 2 229 3 -492 862 c-271
474 -495 862 -498 862 -3 0 -227 -388 -498 -862z"/>
<path d="M3415 4237 c-61 -61 -53 -154 17 -197 67 -40 155 -13 184 57 21 50
10 99 -31 140 -29 29 -39 33 -85 33 -46 0 -56 -4 -85 -33z"/>
<path d="M3450 3250 l0 -380 50 0 50 0 0 380 0 380 -50 0 -50 0 0 -380z"/>
<path d="M3215 3557 l-40 -23 -3 -192 -2 -192 50 0 50 0 0 215 c0 118 -3 215
-7 215 -5 0 -26 -11 -48 -23z"/>
<path d="M3730 3365 l0 -215 50 0 50 0 -2 192 -3 192 -40 23 c-22 12 -43 23
-47 23 -5 0 -8 -97 -8 -215z"/>
<path d="M4498 2511 c-84 -27 -138 -97 -138 -179 0 -76 32 -127 104 -164 61
-31 162 -23 213 18 73 58 93 146 52 231 -35 73 -150 120 -231 94z m107 -77
c34 -16 65 -65 65 -104 0 -29 -26 -76 -52 -94 -32 -23 -100 -20 -131 4 -31 25
-51 80 -42 119 6 28 47 74 75 84 27 10 51 7 85 -9z"/>
<path d="M710 2339 c-41 -94 -76 -175 -78 -180 -2 -5 15 -9 38 -9 39 0 42 2
57 40 l16 40 84 0 85 0 15 -40 c15 -38 18 -40 59 -40 37 0 42 3 37 18 -4 9
-39 89 -79 177 l-72 160 -43 3 -44 2 -75 -171z m150 16 c12 -31 20 -58 17 -61
-2 -3 -27 -4 -55 -2 l-50 3 26 62 c14 34 28 60 32 58 4 -3 18 -30 30 -60z"/>
<path d="M1212 2478 l3 -33 93 -5 93 -5 -96 -115 c-70 -85 -95 -122 -95 -142
l0 -29 158 3 157 3 3 33 3 32 -106 0 -106 0 100 119 c71 84 101 128 101 145
l0 26 -156 0 -155 0 3 -32z"/>
<path d="M1742 2333 l3 -178 115 0 c90 0 122 4 147 18 100 54 129 175 63 267
-38 54 -88 70 -218 70 l-112 0 2 -177z m227 93 c57 -30 69 -116 22 -168 -25
-29 -35 -32 -95 -36 l-66 -4 0 111 0 111 55 0 c31 0 68 -6 84 -14z"/>
<path d="M2332 2333 l3 -178 138 -3 137 -3 0 36 0 35 -95 0 -95 0 0 40 0 40
80 0 80 0 0 35 0 35 -80 0 -80 0 0 35 0 34 93 3 92 3 3 33 3 32 -141 0 -140 0
2 -177z"/>
<path d="M2813 2478 c8 -18 43 -99 77 -180 l63 -148 41 0 41 0 70 162 c39 89
73 171 77 181 7 16 3 18 -34 15 l-42 -3 -51 -117 c-28 -65 -53 -120 -56 -122
-3 -3 -28 49 -56 117 l-52 122 -46 3 -46 3 14 -33z"/>
<path d="M3392 2333 l3 -178 138 -3 137 -3 0 36 0 35 -95 0 -95 0 0 40 0 40
80 0 80 0 0 35 0 35 -80 0 -80 0 0 35 0 34 93 3 92 3 3 33 3 32 -141 0 -140 0
2 -177z"/>
<path d="M3902 2333 l3 -178 133 -3 132 -3 0 36 0 35 -90 0 -90 0 0 145 0 145
-45 0 -45 0 2 -177z"/>
<path d="M4980 2330 l0 -180 40 0 40 0 0 50 0 50 58 0 c68 0 140 32 159 70 20
40 16 104 -9 135 -33 43 -76 55 -188 55 l-100 0 0 -180z m214 88 c38 -55 3
-98 -79 -98 l-55 0 0 60 0 60 59 0 c51 0 62 -3 75 -22z"/>
<path d="M5520 2330 l0 -180 140 0 140 0 0 35 0 35 -95 0 -95 0 0 40 0 40 80
0 80 0 0 35 0 35 -80 0 -80 0 0 35 0 35 90 0 90 0 0 35 0 35 -135 0 -135 0 0
-180z"/>
<path d="M6030 2330 l0 -180 45 0 45 0 0 50 0 50 38 0 c33 0 40 -5 71 -50 32
-47 37 -50 78 -50 23 0 43 1 43 3 0 1 -17 26 -38 56 l-38 53 33 33 c28 28 33
40 33 83 0 97 -55 132 -210 132 l-100 0 0 -180z m212 93 c25 -23 23 -68 -4
-87 -13 -9 -43 -16 -70 -16 l-48 0 0 60 0 60 52 0 c34 0 58 -6 70 -17z"/>
<path d="M2011 1768 c-18 -40 -35 -79 -38 -85 -9 -21 26 -14 37 7 8 15 21 20
50 20 29 0 42 -5 50 -20 11 -21 45 -28 37 -7 -35 91 -72 157 -87 157 -12 0
-27 -23 -49 -72z m68 1 c6 -18 11 -34 11 -35 0 -2 -14 -4 -31 -4 -26 0 -30 3
-24 18 4 9 10 25 12 35 8 26 20 21 32 -14z"/>
<path d="M2280 1756 l0 -86 60 0 c51 0 65 4 85 25 32 31 32 75 2 111 -20 23
-34 28 -85 32 l-62 4 0 -86z m105 48 c27 -11 38 -53 20 -80 -12 -19 -24 -24
-55 -24 l-40 0 0 55 c0 54 0 55 29 55 16 0 37 -3 46 -6z"/>
<path d="M2590 1756 c0 -70 3 -86 15 -86 9 0 15 9 15 25 0 18 5 25 19 25 11 0
28 -11 39 -25 11 -14 27 -25 36 -25 15 0 15 2 0 25 -15 24 -15 27 0 44 20 21
21 51 2 76 -9 13 -30 20 -70 23 l-56 4 0 -86z m98 42 c7 -7 12 -15 12 -19 0
-16 -33 -39 -56 -39 -21 0 -24 5 -24 35 0 32 3 35 28 35 15 0 33 -5 40 -12z"/>
<path d="M2870 1755 c0 -69 3 -85 15 -85 12 0 15 16 15 85 0 69 -3 85 -15 85
-12 0 -15 -16 -15 -85z"/>
<path d="M3092 1813 c-6 -16 -22 -54 -36 -85 -24 -54 -24 -58 -7 -58 10 0 21
9 24 20 4 16 14 20 46 20 30 0 43 -5 51 -20 6 -11 18 -20 26 -20 18 0 15 13
-27 105 -33 73 -60 86 -77 38z m56 -79 c-4 -3 -17 -4 -31 -2 -25 3 -25 3 -10
38 l15 35 16 -32 c8 -18 13 -35 10 -39z"/>
<path d="M3340 1755 c0 -69 3 -85 15 -85 11 0 15 12 15 50 0 28 3 50 8 50 4 0
25 -22 47 -50 22 -27 48 -50 57 -50 16 0 18 10 18 85 0 78 -2 85 -20 85 -17 0
-20 -7 -20 -52 l-1 -53 -47 53 c-26 29 -53 52 -59 52 -10 0 -13 -24 -13 -85z"/>
<path d="M3800 1825 c0 -11 12 -15 45 -15 25 0 45 -3 45 -6 0 -4 -20 -32 -45
-62 -25 -30 -45 -58 -45 -63 0 -5 34 -9 75 -9 60 0 75 3 75 15 0 11 -12 15
-51 15 l-51 0 46 54 c65 76 62 86 -24 86 -56 0 -70 -3 -70 -15z"/>
<path d="M4080 1755 c0 -69 3 -85 15 -85 12 0 15 16 15 85 0 69 -3 85 -15 85
-12 0 -15 -16 -15 -85z"/>
<path d="M4260 1755 c0 -69 3 -85 15 -85 11 0 15 12 15 50 0 28 3 50 8 50 4 0
25 -22 47 -50 22 -27 48 -50 57 -50 16 0 18 10 18 85 0 78 -2 85 -20 85 -17 0
-20 -7 -20 -52 l-1 -53 -47 53 c-26 29 -53 52 -59 52 -10 0 -13 -24 -13 -85z"/>
<path d="M4560 1755 c0 -78 2 -85 20 -85 14 0 20 7 20 24 0 44 23 48 53 10 15
-18 37 -34 48 -34 18 0 16 5 -16 45 l-37 44 31 38 c44 53 18 55 -35 2 l-44
-43 0 42 c0 35 -3 42 -20 42 -18 0 -20 -7 -20 -85z"/>
<path d="M4865 1815 c-56 -56 -16 -145 65 -145 51 0 90 34 90 79 0 43 -9 60
-41 76 -43 23 -86 19 -114 -10z m111 -30 c19 -29 11 -60 -20 -81 -56 -36 -114
38 -69 88 24 26 69 23 89 -7z"/>
</g>
</svg>
